<?xml version="1.0" standalone="no"?>
<!DOCTYPE svg PUBLIC "-//W3C//DTD SVG 20010904//EN"
 "http://www.w3.org/TR/2001/REC-SVG-20010904/DTD/svg10.dtd">
<svg version="1.0" xmlns="http://www.w3.org/2000/svg"
 width="150.000000pt" height="150.000000pt" viewBox="0 0 150.000000 150.000000"
 preserveAspectRatio="xMidYMid meet">
<metadata>
Created by potrace 1.14, written by Peter Selinger 2001-2017
</metadata>
<g transform="translate(0.000000,150.000000) scale(0.100000,-0.100000)"
fill="#000000" stroke="none">
<path d="M387 1113 c-4 -3 -7 -12 -7 -19 0 -9 171 -306 186 -323 2 -2 13 4 24
14 12 11 28 20 36 21 9 1 24 10 33 18 10 9 24 16 32 16 41 1 41 17 -5 91 l-45
74 101 3 c55 1 103 1 105 -2 3 -2 -14 -35 -36 -73 -23 -38 -41 -72 -41 -75 0
-3 13 -11 30 -16 l30 -11 84 142 84 142 -124 3 c-68 1 -180 1 -249 0 l-125 -3
80 -135 c44 -74 80 -138 80 -142 0 -4 -9 -12 -19 -18 -17 -9 -29 6 -110 145
-76 128 -96 155 -115 155 -12 0 -26 -3 -29 -7z"/>
<path d="M1043 1093 c-70 -107 -170 -289 -160 -292 7 -2 20 -10 29 -18 19 -17
12 -26 137 184 43 72 71 129 67 138 -9 25 -54 18 -73 -12z"/>
<path d="M674 761 c-107 -49 -118 -201 -20 -276 46 -35 95 -42 151 -20 64 24
98 72 103 143 5 71 -22 116 -88 150 -54 27 -92 28 -146 3z"/>
</g>
</svg>
